# xmcd
#
# Track frame offsets: 
#        150
#        14841
#        31716
#        51177
#        73602
#        90088
#        110338
#        127063
#        145888
#        161638
#        185038
#        201838
#        216688
#        241429
#        259345
#
# Disc length: 3673 seconds
#
# Revision: 2
# Processed by: cddbd v1.5.2PL0 Copyright (c) Steve Scherf et al.
# Submitted via: ExactAudioCopy v0.95b4
#
DISCID=e40e570f
DTITLE=Eddie Higgins - Standards by Request 2nd Day
DYEAR=2008
DGENRE=Jazz
TTITLE0=If Dreams Come True <E. Sampson>
TTITLE1=Dancing in the Dark <A. Schwartz>
TTITLE2=I Didn't Know About You <D. Ellington>
TTITLE3=How Long Has This Been Going On <G. Gershwin>
TTITLE4=I Don't Know What Time It Was <R. Rodgers>
TTITLE5=Don't Explain <B. Holiday>
TTITLE6=Ill Wind <H. Arlen>
TTITLE7=In a Sentimental Mood <D. Ellington>
TTITLE8=Brownsburg Blues <E. Higgins>
TTITLE9=Corcovado <A. C. Jobim>
TTITLE10=Street of Dreams <V. Young>
TTITLE11=Time on My Hands <V. Youmans>
TTITLE12=My One and Only Love <R. Mellin, G. Wood>
TTITLE13=The Things We Did Last Summer <J. Styne>
TTITLE14=By Myself <A. Schwartz>
EXTD=YEAR: 2008
EXTT0=
EXTT1=
EXTT2=
EXTT3=
EXTT4=
EXTT5=
EXTT6=
EXTT7=
EXTT8=
EXTT9=
EXTT10=
EXTT11=
EXTT12=
EXTT13=
EXTT14=
PLAYORDER=
